<svg id="visual" viewBox="0 0 540 960" width="540" height="960" xmlns="http://www.w3.org/2000/svg" xmlns:xlink="http://www.w3.org/1999/xlink" version="1.1"><path d="M0 630L18 626.5C36 623 72 616 108 612C144 608 180 607 216 613.8C252 620.7 288 635.3 324 640.7C360 646 396 642 432 635C468 628 504 618 522 613L540 608L540 961L522 961C504 961 468 961 432 961C396 961 360 961 324 961C288 961 252 961 216 961C180 961 144 961 108 961C72 961 36 961 18 961L0 961Z" fill="#A8D2C8" stroke-linecap="round" stroke-linejoin="miter"></path></svg>