<svg id="visual" viewBox="0 0 540 960" width="540" height="960" xmlns="http://www.w3.org/2000/svg" xmlns:xlink="http://www.w3.org/1999/xlink" version="1.1"><path d="M390 960L388.8 937.2C387.7 914.3 385.3 868.7 383.5 823C381.7 777.3 380.3 731.7 374.2 686C368 640.3 357 594.7 359.8 548.8C362.7 503 379.3 457 387.7 411.2C396 365.3 396 319.7 391.3 274C386.7 228.3 377.3 182.7 378 137C378.7 91.3 389.3 45.7 394.7 22.8L400 0L540 0L540 22.8C540 45.7 540 91.3 540 137C540 182.7 540 228.3 540 274C540 319.7 540 365.3 540 411.2C540 457 540 503 540 548.8C540 594.7 540 640.3 540 686C540 731.7 540 777.3 540 823C540 868.7 540 914.3 540 937.2L540 960Z" fill="#a8d2c8"></path><path d="M417 960L411 937.2C405 914.3 393 868.7 383.2 823C373.3 777.3 365.7 731.7 373 686C380.3 640.3 402.7 594.7 415.3 548.8C428 503 431 457 421.2 411.2C411.3 365.3 388.7 319.7 379.7 274C370.7 228.3 375.3 182.7 374.7 137C374 91.3 368 45.7 365 22.8L362 0L540 0L540 22.8C540 45.7 540 91.3 540 137C540 182.7 540 228.3 540 274C540 319.7 540 365.3 540 411.2C540 457 540 503 540 548.8C540 594.7 540 640.3 540 686C540 731.7 540 777.3 540 823C540 868.7 540 914.3 540 937.2L540 960Z" fill="#7caaac"></path><path d="M407 960L416 937.2C425 914.3 443 868.7 443.3 823C443.7 777.3 426.3 731.7 417.3 686C408.3 640.3 407.7 594.7 414.8 548.8C422 503 437 457 435.8 411.2C434.7 365.3 417.3 319.7 410.3 274C403.3 228.3 406.7 182.7 412.3 137C418 91.3 426 45.7 430 22.8L434 0L540 0L540 22.8C540 45.7 540 91.3 540 137C540 182.7 540 228.3 540 274C540 319.7 540 365.3 540 411.2C540 457 540 503 540 548.8C540 594.7 540 640.3 540 686C540 731.7 540 777.3 540 823C540 868.7 540 914.3 540 937.2L540 960Z" fill="#56838f"></path><path d="M487 960L478.3 937.2C469.7 914.3 452.3 868.7 448.7 823C445 777.3 455 731.7 461 686C467 640.3 469 594.7 466.8 548.8C464.7 503 458.3 457 454.2 411.2C450 365.3 448 319.7 453.5 274C459 228.3 472 182.7 474 137C476 91.3 467 45.7 462.5 22.8L458 0L540 0L540 22.8C540 45.7 540 91.3 540 137C540 182.7 540 228.3 540 274C540 319.7 540 365.3 540 411.2C540 457 540 503 540 548.8C540 594.7 540 640.3 540 686C540 731.7 540 777.3 540 823C540 868.7 540 914.3 540 937.2L540 960Z" fill="#385d71"></path><path d="M510 960L510.7 937.2C511.3 914.3 512.7 868.7 508.8 823C505 777.3 496 731.7 490.7 686C485.3 640.3 483.7 594.7 486.7 548.8C489.7 503 497.3 457 501 411.2C504.7 365.3 504.3 319.7 501.3 274C498.3 228.3 492.7 182.7 493.5 137C494.3 91.3 501.7 45.7 505.3 22.8L509 0L540 0L540 22.8C540 45.7 540 91.3 540 137C540 182.7 540 228.3 540 274C540 319.7 540 365.3 540 411.2C540 457 540 503 540 548.8C540 594.7 540 640.3 540 686C540 731.7 540 777.3 540 823C540 868.7 540 914.3 540 937.2L540 960Z" fill="#223850"></path></svg>