<svg id="visual" viewBox="0 0 960 540" width="960" height="540" xmlns="http://www.w3.org/2000/svg" xmlns:xlink="http://www.w3.org/1999/xlink" version="1.1"><path d="M726 540L723.5 522C721 504 716 468 713.2 432C710.3 396 709.7 360 714.5 324C719.3 288 729.7 252 733.5 216C737.3 180 734.7 144 729.7 108C724.7 72 717.3 36 713.7 18L710 0L960 0L960 18C960 36 960 72 960 108C960 144 960 180 960 216C960 252 960 288 960 324C960 360 960 396 960 432C960 468 960 504 960 522L960 540Z" fill="#A8D2C8" stroke-linecap="round" stroke-linejoin="miter"></path></svg>